<?xml version="1.0" standalone="no"?>
<!DOCTYPE svg PUBLIC "-//W3C//DTD SVG 20010904//EN"
 "http://www.w3.org/TR/2001/REC-SVG-20010904/DTD/svg10.dtd">
<svg version="1.0" xmlns="http://www.w3.org/2000/svg"
 width="650.000000pt" height="649.000000pt" viewBox="0 0 650.000000 649.000000"
 preserveAspectRatio="xMidYMid meet">

<g transform="translate(0.000000,649.000000) scale(0.100000,-0.100000)"
fill="#ffff" stroke="#ffff">
<path d="M3618 6480 c-15 -4 -194 -136 -399 -291 -205 -156 -384 -291 -398
-299 -51 -30 -1001 -749 -1049 -794 -19 -17 -40 -43 -48 -58 -20 -39 -18 -117
5 -154 16 -27 305 -428 433 -601 l38 -52 168 128 c1063 812 1683 1277 1716
1289 78 26 80 25 769 -472 630 -455 642 -463 657 -442 9 12 45 63 80 114 50
74 64 103 68 141 9 101 57 62 -955 793 -505 364 -938 673 -962 685 -46 24 -77
27 -123 13z"/>
<path d="M2040 6112 c-29 -15 -1670 -1258 -1809 -1370 -48 -39 -80 -99 -81
-150 0 -18 83 -285 184 -595 101 -309 261 -800 356 -1092 95 -291 181 -546
191 -566 10 -21 33 -46 51 -57 65 -40 89 -38 278 28 96 33 269 93 383 132 163
56 207 74 202 86 -3 8 -167 509 -365 1113 -272 829 -360 1110 -360 1146 0 31
8 61 23 86 16 28 185 161 647 513 344 261 626 479 628 484 2 4 -33 58 -78 118
-64 88 -88 113 -120 126 -52 21 -88 20 -130 -2z"/>
<path d="M3705 5173 c10 -10 178 -132 203 -147 6 -4 12 -5 12 -3 0 7 -189 147
-208 154 -11 4 -14 3 -7 -4z"/>
<path d="M4425 5091 c-30 -18 -110 -126 -269 -361 -42 -63 -111 -164 -152
-223 l-74 -108 48 -33 c40 -27 1757 -1269 1818 -1314 33 -25 53 -57 65 -104
12 -43 6 -64 -219 -816 -128 -424 -232 -776 -232 -781 0 -14 223 -81 270 -81
47 0 85 17 118 53 18 18 97 269 328 1038 420 1395 377 1242 359 1305 -12 41
-25 62 -58 88 -23 19 -269 200 -547 401 -278 201 -679 491 -892 646 -213 154
-400 286 -415 294 -39 21 -112 19 -148 -4z"/>
<path d="M214 3170 c-61 -20 -122 -45 -136 -54 -35 -23 -68 -87 -68 -132 0
-48 721 -2237 748 -2274 11 -13 39 -35 63 -47 l44 -22 1151 8 c1246 10 1178 6
1231 63 12 12 26 36 32 51 12 32 15 359 4 658 l-6 195 -31 -3 c-17 -2 -535 -7
-1151 -12 -1069 -9 -1122 -9 -1160 8 -22 10 -51 30 -64 44 -17 18 -94 240
-275 788 -138 419 -256 764 -261 765 -6 1 -60 -15 -121 -36z"/>
<path d="M4610 2735 c0 -29 -710 -2218 -730 -2250 -11 -19 -40 -43 -64 -54
-42 -21 -54 -21 -835 -21 l-793 0 4 -143 c3 -158 14 -192 75 -233 31 -20 43
-21 790 -27 1165 -11 1541 -9 1586 7 45 16 74 40 93 78 12 24 157 468 580
1781 79 246 144 461 144 478 0 41 -26 94 -60 123 -22 18 -315 128 -315 118 0
-1 -83 26 -185 62 -259 90 -290 98 -290 81z"/>
</g>
</svg>
